<?xml version="1.0" standalone="no"?>
<!DOCTYPE svg PUBLIC "-//W3C//DTD SVG 20010904//EN"
 "http://www.w3.org/TR/2001/REC-SVG-20010904/DTD/svg10.dtd">
<svg version="1.0" xmlns="http://www.w3.org/2000/svg"
 width="1024.000000pt" height="1024.000000pt" viewBox="0 0 1024.000000 1024.000000"
 preserveAspectRatio="xMidYMid meet">
<metadata>
Created by potrace 1.14, written by Peter Selinger 2001-2017
</metadata>
<g transform="translate(0.000000,1024.000000) scale(0.100000,-0.100000)"
fill="#000000" stroke="none">
<path d="M5468 8773 c-10 -2 -87 -86 -172 -186 -128 -151 -265 -310 -425 -492
-14 -17 -69 -80 -121 -140 -75 -87 -349 -401 -532 -609 l-27 -31 -1 -169 0
-169 -42 -46 c-49 -55 -214 -228 -347 -364 l-96 -99 75 7 c41 3 86 8 100 10
14 2 57 7 95 10 39 3 86 8 105 10 75 9 259 26 345 33 l90 7 3 337 2 337 104
113 c57 62 118 126 135 142 l31 30 0 -467 c0 -376 3 -467 13 -467 25 0 364 30
502 45 77 8 192 20 255 25 63 6 156 15 205 20 50 5 137 13 195 16 l105 6 47
-54 46 -55 -678 -678 -679 -678 62 -75 c34 -41 91 -109 127 -151 36 -42 103
-120 148 -174 l82 -98 0 -399 0 -399 58 -34 c90 -54 248 -137 260 -137 9 0 12
61 12 224 0 123 3 226 8 228 4 2 45 44 92 93 46 50 132 139 189 198 l106 109
28 -34 c15 -18 55 -65 88 -105 l60 -72 -156 -159 -155 -159 1 -169 c1 -93 4
-196 8 -228 l6 -60 362 370 c199 203 363 373 363 377 1 11 -509 623 -710 851
l-94 108 -103 -105 -103 -105 0 -154 -1 -153 -48 55 c-27 30 -98 114 -160 185
l-111 130 328 326 c778 774 896 882 1057 965 39 20 72 39 75 42 3 2 -112 119
-255 259 l-260 254 -103 -6 c-56 -3 -112 -8 -125 -10 -12 -2 -49 -6 -82 -10
-33 -3 -115 -13 -183 -21 -68 -9 -126 -13 -130 -10 -3 4 46 59 110 123 l116
116 109 12 c59 7 169 18 243 25 l136 12 104 -57 c180 -98 190 -105 206 -144 8
-20 51 -142 95 -271 44 -130 83 -240 87 -246 7 -10 144 -73 367 -167 72 -31
169 -74 218 -96 l87 -40 0 -113 0 -114 123 -63 c67 -35 125 -66 129 -70 4 -3
-16 -45 -43 -93 -89 -155 -182 -212 -344 -212 -80 0 -114 7 -310 62 -121 34
-321 89 -445 121 l-226 58 -134 -28 c-74 -15 -186 -38 -247 -51 -62 -13 -113
-26 -113 -30 0 -4 36 -49 81 -100 160 -185 317 -375 393 -475 152 -202 333
-508 367 -623 7 -22 15 -40 19 -40 21 0 32 286 15 385 -39 220 -97 373 -200
531 -39 59 -50 84 -38 80 127 -36 650 -170 708 -181 137 -27 229 -17 367 39
87 35 161 83 240 155 70 65 71 66 210 349 77 156 140 296 140 311 1 49 -13 90
-41 114 -29 24 -228 119 -565 269 -111 49 -273 123 -362 164 l-161 75 -62 202
c-75 242 -99 299 -150 346 l-39 36 -11 345 c-6 190 -16 467 -21 615 -5 149 -9
284 -9 302 1 75 -67 136 -133 117 -23 -7 -52 -33 -101 -94 -38 -47 -81 -99
-95 -115 -15 -17 -61 -71 -102 -120 -41 -50 -77 -92 -81 -95 -7 -5 -41 -44
-234 -276 -120 -143 -134 -159 -139 -153 -5 5 -118 463 -171 694 -30 129 -43
165 -64 187 -26 27 -70 41 -103 31z m17 -938 l87 -355 -148 -158 c-187 -199
-305 -322 -310 -322 -2 0 -4 199 -3 443 l0 442 137 152 c75 84 140 152 143
153 4 0 46 -160 94 -355z m925 -55 l0 -250 -82 41 c-68 34 -213 114 -226 125
-4 3 298 334 304 334 2 0 4 -113 4 -250z"/>
<path d="M5519 6376 c-2 -2 -40 -7 -84 -10 -44 -4 -96 -9 -115 -11 -19 -2 -64
-7 -100 -10 -36 -4 -137 -15 -225 -25 -88 -10 -191 -21 -230 -25 -95 -8 -173
-15 -215 -20 -19 -3 -181 -18 -360 -35 -305 -29 -355 -34 -455 -45 -22 -2 -75
-7 -117 -11 l-78 -6 0 -452 0 -451 -152 -152 c-145 -145 -151 -153 -133 -167
22 -16 569 -299 598 -309 16 -6 17 27 17 612 l0 619 38 6 c20 3 109 12 197 21
308 30 370 36 400 40 17 2 68 7 115 11 l85 7 -39 -44 c-21 -24 -83 -90 -138
-145 l-99 -102 -107 -8 c-59 -4 -110 -9 -114 -10 -5 -1 -24 -2 -43 -3 l-35 -1
0 -579 0 -579 160 -83 c88 -46 273 -144 411 -216 138 -73 253 -133 255 -133 2
0 4 122 4 271 l0 270 -247 297 c-137 163 -256 306 -265 317 -16 21 -4 34 548
589 310 313 564 570 564 572 0 5 -35 5 -41 0z"/>
<path d="M4892 3404 c-117 -31 -188 -87 -237 -187 -25 -52 -36 -88 -38 -132
-11 -190 107 -323 337 -379 85 -21 121 -39 142 -72 23 -35 7 -68 -42 -84 -75
-25 -206 11 -294 80 -21 16 -42 30 -46 30 -5 0 -40 -46 -78 -102 l-70 -102 46
-41 c55 -50 161 -107 242 -130 81 -24 229 -17 309 15 88 33 156 93 197 174 30
60 34 75 33 145 -1 172 -97 274 -310 332 -128 35 -173 65 -173 117 0 28 44 63
87 68 48 7 132 -22 207 -70 l55 -35 27 47 c15 26 44 76 65 112 l38 64 -22 24
c-39 42 -140 102 -206 122 -75 24 -191 25 -269 4z"/>
<path d="M8335 3413 c-57 -4 -42 15 -167 -221 -39 -74 -74 -130 -78 -125 -5 4
-49 82 -98 173 l-89 165 -177 3 -176 2 43 -67 c24 -38 114 -188 200 -335 l157
-266 0 -231 0 -231 145 0 145 0 0 232 0 231 122 216 c221 394 248 442 248 452
0 9 -164 10 -275 2z"/>
<path d="M2390 2845 l0 -565 150 0 150 0 0 205 0 205 160 0 160 0 0 -205 0
-205 143 0 144 0 6 167 c4 91 7 345 7 565 l0 398 -150 0 -150 0 0 -215 0 -215
-160 0 -160 0 0 215 0 215 -150 0 -150 0 0 -565z"/>
<path d="M3530 3103 c1 -400 9 -493 48 -575 77 -163 238 -262 422 -260 221 3
385 133 435 344 12 50 15 142 15 431 l0 367 -155 0 -155 0 0 -345 c1 -215 -3
-359 -10 -384 -11 -43 -55 -87 -96 -97 -42 -11 -103 3 -139 30 -59 45 -64 82
-61 464 l1 332 -152 0 -153 0 0 -307z"/>
<path d="M5540 2845 l0 -565 150 0 150 0 2 177 3 178 105 -145 c58 -79 116
-159 129 -177 l24 -33 185 0 184 0 -39 48 c-44 53 -350 462 -377 504 l-18 27
79 103 c116 152 323 434 323 442 0 3 -75 6 -167 5 l-168 0 -130 -186 -130
-186 -3 186 -2 187 -150 0 -150 0 0 -565z"/>
<path d="M6600 2845 l0 -565 150 0 150 0 2 187 3 187 27 -41 c23 -36 195 -261
238 -313 13 -16 36 -19 193 -22 97 -2 177 -1 177 3 0 7 -40 60 -283 374 -81
104 -147 196 -147 203 0 7 60 92 133 190 148 197 257 347 257 356 0 3 -75 6
-167 6 l-168 -1 -132 -191 -133 -191 0 192 0 191 -150 0 -150 0 0 -565z"/>
<path d="M3970 1750 l0 -280 195 0 195 0 0 70 0 70 -125 0 -125 0 0 40 0 40
89 0 c50 0 93 4 96 10 3 5 9 32 12 60 l6 50 -102 0 -102 0 3 43 3 42 118 3
117 3 0 64 0 65 -190 0 -190 0 0 -280z"/>
<path d="M4480 2021 c0 -15 55 -164 133 -361 l73 -185 60 0 59 0 107 270 c59
149 107 273 108 278 0 4 -33 7 -74 7 l-74 0 -27 -77 c-37 -103 -86 -226 -95
-236 -3 -4 -35 65 -69 153 l-62 160 -70 0 c-38 0 -69 -4 -69 -9z"/>
<path d="M5167 2023 c-4 -3 -7 -129 -7 -280 l0 -273 200 0 200 0 0 70 0 70
-130 0 -130 0 0 40 0 40 100 0 100 0 0 60 0 60 -101 0 -100 0 3 43 3 42 128 3
127 3 0 64 0 65 -193 0 c-107 0 -197 -3 -200 -7z"/>
<path d="M5732 1753 l3 -278 68 -3 67 -3 0 141 c0 77 3 140 8 140 4 0 54 -63
112 -140 l105 -140 58 0 57 0 0 280 0 280 -70 0 -69 0 -3 -142 -3 -142 -108
142 -108 142 -60 0 -59 0 2 -277z"/>
<path d="M6352 1963 l3 -68 83 -3 82 -3 0 -209 0 -210 70 0 70 0 0 210 0 210
79 0 79 0 4 70 3 70 -238 0 -238 0 3 -67z"/>
<path d="M7065 2018 c-107 -39 -156 -159 -100 -244 17 -27 96 -68 162 -84 22
-6 52 -19 64 -29 23 -19 24 -19 5 -40 -33 -37 -149 -17 -206 34 -14 13 -20 9
-54 -36 l-37 -50 23 -19 c13 -11 48 -32 78 -47 46 -24 68 -28 135 -28 67 0 87
4 125 25 56 32 90 81 90 132 0 90 -51 142 -175 180 -38 11 -76 25 -82 31 -18
13 -16 44 3 51 30 12 105 6 136 -10 l32 -16 38 43 c20 24 38 48 38 52 0 4 -26
20 -57 35 -65 29 -167 39 -218 20z"/>
<path d="M3669 1877 c-25 -19 -41 -57 -35 -83 9 -34 45 -64 78 -64 34 0 78 39
78 69 0 66 -74 114 -121 78z"/>
<path d="M7514 1878 c-22 -10 -44 -47 -44 -73 0 -7 12 -27 26 -44 33 -40 80
-42 114 -6 63 67 -13 164 -96 123z"/>
</g>
</svg>
